# Blender v2.69 (sub 0) OBJ File: ''
# www.blender.org
v 0.500000 -0.500000 -0.500000
v 0.500000 -0.500000 0.500000
v -0.500000 -0.500000 0.500000
v -0.500000 -0.500000 -0.500000
v 0.500000 0.500000 -0.500000
v 0.500000 0.500000 0.500000
v -0.500000 0.500000 0.500000
v -0.500000 0.500000 -0.500000

vt 0.000000 0.000000
vt 1.000000 0.000000
vt 0.000000 1.000000
vt 1.000000 1.000000

vn 0.000000 -1.000000 0.000000
vn 0.000000 1.000000 0.000000
vn 1.000000 0.000000 0.000000
vn 0.000000 0.000000 1.000000
vn -1.000000 0.000000 0.000000
vn 0.000000 0.000000 -1.000000
s off

f 1/2/1 2/4/1 4/1/1
f 2/4/1 3/3/1 4/1/1

f 8/3/2 7/1/2 6/2/2
f 5/4/2 8/3/2 6/2/2

f 1/2/3 5/4/3 2/1/3
f 5/4/3 6/3/3 2/1/3

f 2/2/4 6/4/4 3/1/4
f 6/4/4 7/3/4 3/1/4

f 3/2/5 7/4/5 4/1/5
f 7/4/5 8/3/5 4/1/5

f 5/3/6 1/1/6 8/4/6
f 1/1/6 4/2/6 8/4/6
