# Blender v2.69 (sub 0) OBJ File: ''
# www.blender.org
v 0.500000 -0.500000 -0.500000
v 0.500000 -0.500000 0.500000
v -0.500000 -0.500000 0.500000
v -0.500000 -0.500000 -0.500000
v 0.500000 0.500000 -0.500000
v 0.500000 0.500000 0.500000
v -0.500000 0.500000 0.500000
v -0.500000 0.500000 -0.500000

vt 0.000000 0.000000
vt 1.000000 0.000000
vt 0.000000 1.000000
vt 1.000000 1.000000

vt 0.250000 0.250000
vt 0.250000 0.750000
vt 0.750000 0.250000
vt 0.750000 0.750000

vn 0.000000 -1.000000 0.000000
vn 0.000000 1.000000 0.000000
vn 1.000000 0.000000 0.000000
vn 0.000000 0.000000 1.000000
vn -1.000000 0.000000 0.000000
vn 0.000000 0.000000 -1.000000
s off

f 1/2/1 2/7/1 4/1/1
f 2/7/1 3/5/1 4/1/1

f 8/3/2 7/6/2 6/8/2
f 5/4/2 8/3/2 6/8/2

f 1/2/3 5/4/3 2/7/3
f 5/4/3 6/8/3 2/7/3

f 2/7/4 6/8/4 3/5/4
f 6/8/4 7/6/4 3/5/4

f 3/5/5 7/6/5 4/1/5
f 7/6/5 8/3/5 4/1/5

f 5/4/6 1/2/6 8/3/6
f 1/2/6 4/1/6 8/3/6
