# Blender v2.69 (sub 0) OBJ File: ''
# www.blender.org
o cube-1
v 0.500000 -0.500000 -0.500000
v 0.500000 -0.500000 0.500000
v -0.500000 -0.500000 -0.500000
v -0.500000 -0.500000 0.500000
v -0.500000 0.500000 -0.500000
v -0.500000 0.500000 0.500000
v 0.500000 0.500000 0.500000
v 0.500000 0.500000 -0.500000
v 0.000000 0.500000 0.500000
v 0.500000 0.000000 0.000000
v 0.000000 -0.500000 0.500000
v 0.000000 0.000000 -0.500000
v 0.500000 -0.000000 0.500000
v 0.000000 0.500000 -0.500000
v 0.000000 -0.500000 -0.000000
v -0.500000 0.000000 0.000000
v 0.000000 0.500000 0.000000
v -0.500000 0.000000 -0.500000
v -0.500000 -0.000000 0.500000
v 0.500000 0.500000 0.000000
v -0.500000 0.500000 0.000000
v 0.000000 -0.500000 -0.500000
v 0.500000 0.000000 -0.500000
v -0.500000 -0.500000 -0.000000
v 0.000000 -0.000000 0.500000
v 0.500000 -0.500000 -0.000000
v 0.250000 0.500000 0.500000
v 0.500000 0.250000 -0.250000
v -0.250000 -0.500000 0.500000
v -0.250000 0.250000 -0.500000
v 0.500000 0.250000 0.500000
v 0.250000 0.500000 -0.500000
v -0.250000 -0.500000 -0.250000
v -0.500000 0.250000 0.250000
v 0.250000 0.500000 0.250000
v -0.500000 0.250000 -0.500000
v -0.500000 0.250000 0.500000
v 0.500000 0.500000 -0.250000
v -0.500000 0.500000 0.250000
v -0.250000 -0.500000 -0.500000
v 0.500000 0.250000 -0.500000
v -0.500000 -0.500000 0.250000
v 0.250000 0.250000 0.500000
v 0.500000 -0.500000 0.250000
v -0.250000 0.500000 0.500000
v 0.500000 -0.250000 0.250000
v 0.250000 -0.500000 0.500000
v 0.250000 -0.250000 -0.500000
v 0.500000 -0.250000 0.500000
v -0.250000 0.500000 -0.500000
v 0.250000 -0.500000 0.250000
v -0.500000 -0.250000 -0.250000
v -0.250000 0.500000 -0.250000
v -0.500000 -0.250000 -0.500000
v -0.500000 -0.250000 0.500000
v 0.500000 0.500000 0.250000
v -0.500000 0.500000 -0.250000
v 0.250000 -0.500000 -0.500000
v 0.500000 -0.250000 -0.500000
v -0.500000 -0.500000 -0.250000
v -0.250000 -0.250000 0.500000
v 0.500000 -0.500000 -0.250000
v 0.000000 -0.500000 -0.250000
v 0.250000 -0.500000 -0.250000
v 0.250000 -0.500000 -0.000000
v -0.250000 -0.500000 -0.000000
v 0.000000 -0.500000 0.250000
v -0.250000 -0.500000 0.250000
v 0.000000 0.500000 0.250000
v -0.250000 0.500000 0.000000
v -0.250000 0.500000 0.250000
v 0.250000 0.500000 0.000000
v 0.250000 0.500000 -0.250000
v 0.000000 0.500000 -0.250000
v 0.500000 -0.250000 -0.000000
v 0.500000 -0.250000 -0.250000
v 0.500000 0.000000 -0.250000
v 0.500000 -0.000000 0.250000
v 0.500000 0.250000 0.000000
v 0.500000 0.250000 0.250000
v 0.000000 -0.250000 0.500000
v 0.250000 -0.250000 0.500000
v 0.250000 -0.000000 0.500000
v -0.250000 -0.000000 0.500000
v 0.000000 0.250000 0.500000
v -0.250000 0.250000 0.500000
v -0.500000 -0.250000 -0.000000
v -0.500000 -0.250000 0.250000
v -0.500000 -0.000000 0.250000
v -0.500000 0.000000 -0.250000
v -0.500000 0.250000 0.000000
v -0.500000 0.250000 -0.250000
v 0.000000 0.250000 -0.500000
v 0.250000 0.250000 -0.500000
v 0.250000 0.000000 -0.500000
v -0.250000 0.000000 -0.500000
v 0.000000 -0.250000 -0.500000
v -0.250000 -0.250000 -0.500000
vt 1.000000 0.000000
vt 0.937500 0.062500
vt 0.750000 0.000000
vt 0.750000 0.250000
vt 0.625000 0.250000
vt 0.562500 0.187500
vt 0.000000 1.000000
vt 0.062500 0.937500
vt 0.187500 0.937500
vt 1.000000 1.000000
vt 0.750000 1.000000
vt 0.937500 0.937500
vt 1.000000 0.250000
vt 0.937500 0.812500
vt 0.750000 0.375000
vt 0.750000 0.750000
vt 0.625000 0.750000
vt 0.625000 0.625000
vt 0.250000 0.250000
vt 0.250000 0.375000
vt 0.187500 0.187500
vt 0.250000 0.750000
vt 0.187500 0.812500
vt 0.187500 0.562500
vt 1.000000 0.750000
vt 0.500000 0.000000
vt 0.437500 0.062500
vt 0.250000 0.000000
vt 0.687500 0.062500
vt 0.875000 0.125000
vt 0.812500 0.187500
vt 0.625000 0.125000
vt 0.375000 0.125000
vt 0.250000 0.125000
vt 0.187500 0.062500
vt 0.437500 0.187500
vt 0.500000 0.250000
vt 0.375000 0.250000
vt 0.312500 0.187500
vt 0.375000 0.875000
vt 0.437500 0.812500
vt 0.562500 0.812500
vt 0.250000 0.875000
vt 0.125000 0.875000
vt 0.312500 0.812500
vt 0.875000 0.875000
vt 0.625000 0.875000
vt 0.812500 0.812500
vt 0.687500 0.937500
vt 0.500000 1.000000
vt 0.250000 1.000000
vt 0.437500 0.937500
vt 0.875000 0.375000
vt 0.937500 0.312500
vt 1.000000 0.500000
vt 0.937500 0.562500
vt 0.875000 0.625000
vt 0.812500 0.562500
vt 0.812500 0.437500
vt 0.875000 0.750000
vt 0.812500 0.687500
vt 0.500000 0.375000
vt 0.625000 0.375000
vt 0.750000 0.500000
vt 0.750000 0.625000
vt 0.625000 0.500000
vt 0.500000 0.500000
vt 0.375000 0.500000
vt 0.375000 0.375000
vt 0.500000 0.625000
vt 0.500000 0.750000
vt 0.375000 0.750000
vt 0.375000 0.625000
vt 0.125000 0.125000
vt 0.125000 0.250000
vt 0.062500 0.062500
vt 0.187500 0.312500
vt 0.250000 0.500000
vt 0.250000 0.625000
vt 0.187500 0.437500
vt 0.125000 0.375000
vt 0.062500 0.437500
vt 0.062500 0.187500
vt 0.125000 0.625000
vt 0.062500 0.687500
vt 0.000000 0.000000
vt 0.000000 0.250000
vt 0.000000 0.500000
vt 0.000000 0.750000
vn 0.000000 -1.000000 -0.000000
vn 0.000000 1.000000 0.000000
vn 1.000000 0.000000 0.000000
vn 0.000000 -0.000000 1.000000
vn -1.000000 0.000000 0.000000
vn 0.000000 0.000000 -1.000000
s off
f 1/1/1 62/2/1 58/3/1
f 2/4/1 47/5/1 51/6/1
f 5/7/2 57/8/2 53/9/2
f 8/10/2 32/11/2 38/12/2
f 1/1/3 59/13/3 62/2/3
f 8/10/3 38/12/3 28/14/3
f 2/4/4 49/15/4 47/5/4
f 7/16/4 27/17/4 43/18/4
f 4/19/5 55/20/5 42/21/5
f 6/22/5 39/23/5 34/24/5
f 8/10/6 41/25/6 32/11/6
f 1/1/6 58/3/6 48/4/6
f 22/26/1 63/27/1 40/28/1
f 22/26/1 64/29/1 63/27/1
f 26/30/1 44/31/1 65/32/1
f 15/33/1 66/34/1 33/35/1
f 15/33/1 67/36/1 66/34/1
f 11/37/1 29/38/1 68/39/1
f 17/40/2 69/41/2 35/42/2
f 17/40/2 70/43/2 69/41/2
f 21/44/2 39/23/2 71/45/2
f 20/46/2 72/47/2 56/48/2
f 20/46/2 73/49/2 72/47/2
f 14/50/2 50/51/2 74/52/2
f 26/30/3 75/53/3 44/31/3
f 26/30/3 76/54/3 75/53/3
f 23/55/3 41/25/3 77/56/3
f 10/57/3 78/58/3 46/59/3
f 10/57/3 79/60/3 78/58/3
f 20/46/3 56/48/3 80/61/3
f 11/37/4 81/62/4 29/38/4
f 11/37/4 82/63/4 81/62/4
f 13/64/4 31/65/4 83/66/4
f 25/67/4 84/68/4 61/69/4
f 25/67/4 85/70/4 84/68/4
f 9/71/4 45/72/4 86/73/4
f 24/74/5 87/75/5 60/76/5
f 24/74/5 88/77/5 87/75/5
f 19/78/5 37/79/5 89/80/5
f 16/81/5 90/82/5 52/83/5
f 16/81/5 91/84/5 90/82/5
f 21/44/5 57/8/5 92/85/5
f 14/50/6 93/71/6 50/51/6
f 14/50/6 94/16/6 93/71/6
f 23/55/6 59/13/6 95/64/6
f 12/67/6 96/78/6 30/22/6
f 12/67/6 97/37/6 96/78/6
f 22/26/6 40/28/6 98/19/6
f 58/3/1 64/29/1 22/26/1
f 58/3/1 62/2/1 64/29/1
f 62/2/1 26/30/1 64/29/1
f 51/6/1 67/36/1 15/33/1
f 51/6/1 47/5/1 67/36/1
f 47/5/1 11/37/1 67/36/1
f 53/9/2 70/43/2 17/40/2
f 53/9/2 57/8/2 70/43/2
f 57/8/2 21/44/2 70/43/2
f 38/12/2 73/49/2 20/46/2
f 38/12/2 32/11/2 73/49/2
f 32/11/2 14/50/2 73/49/2
f 62/2/3 76/54/3 26/30/3
f 62/2/3 59/13/3 76/54/3
f 59/13/3 23/55/3 76/54/3
f 28/14/3 79/60/3 10/57/3
f 28/14/3 38/12/3 79/60/3
f 38/12/3 20/46/3 79/60/3
f 47/5/4 82/63/4 11/37/4
f 47/5/4 49/15/4 82/63/4
f 49/15/4 13/64/4 82/63/4
f 43/18/4 85/70/4 25/67/4
f 43/18/4 27/17/4 85/70/4
f 27/17/4 9/71/4 85/70/4
f 42/21/5 88/77/5 24/74/5
f 42/21/5 55/20/5 88/77/5
f 55/20/5 19/78/5 88/77/5
f 34/24/5 91/84/5 16/81/5
f 34/24/5 39/23/5 91/84/5
f 39/23/5 21/44/5 91/84/5
f 32/11/6 94/16/6 14/50/6
f 32/11/6 41/25/6 94/16/6
f 41/25/6 23/55/6 94/16/6
f 48/4/6 97/37/6 12/67/6
f 48/4/6 58/3/6 97/37/6
f 58/3/6 22/26/6 97/37/6
f 40/28/1 33/35/1 3/86/1
f 40/28/1 63/27/1 33/35/1
f 63/27/1 15/33/1 33/35/1
f 63/27/1 65/32/1 15/33/1
f 63/27/1 64/29/1 65/32/1
f 64/29/1 26/30/1 65/32/1
f 65/32/1 51/6/1 15/33/1
f 65/32/1 44/31/1 51/6/1
f 44/31/1 2/4/1 51/6/1
f 33/35/1 60/76/1 3/86/1
f 33/35/1 66/34/1 60/76/1
f 66/34/1 24/74/1 60/76/1
f 66/34/1 68/39/1 24/74/1
f 66/34/1 67/36/1 68/39/1
f 67/36/1 11/37/1 68/39/1
f 68/39/1 42/21/1 24/74/1
f 68/39/1 29/38/1 42/21/1
f 29/38/1 4/19/1 42/21/1
f 35/42/2 27/17/2 7/16/2
f 35/42/2 69/41/2 27/17/2
f 69/41/2 9/71/2 27/17/2
f 69/41/2 71/45/2 9/71/2
f 69/41/2 70/43/2 71/45/2
f 70/43/2 21/44/2 71/45/2
f 71/45/2 45/72/2 9/71/2
f 71/45/2 39/23/2 45/72/2
f 39/23/2 6/22/2 45/72/2
f 56/48/2 35/42/2 7/16/2
f 56/48/2 72/47/2 35/42/2
f 72/47/2 17/40/2 35/42/2
f 72/47/2 74/52/2 17/40/2
f 72/47/2 73/49/2 74/52/2
f 73/49/2 14/50/2 74/52/2
f 74/52/2 53/9/2 17/40/2
f 74/52/2 50/51/2 53/9/2
f 50/51/2 5/7/2 53/9/2
f 44/31/3 46/59/3 2/4/3
f 44/31/3 75/53/3 46/59/3
f 75/53/3 10/57/3 46/59/3
f 75/53/3 77/56/3 10/57/3
f 75/53/3 76/54/3 77/56/3
f 76/54/3 23/55/3 77/56/3
f 77/56/3 28/14/3 10/57/3
f 77/56/3 41/25/3 28/14/3
f 41/25/3 8/10/3 28/14/3
f 46/59/3 49/15/3 2/4/3
f 46/59/3 78/58/3 49/15/3
f 78/58/3 13/64/3 49/15/3
f 78/58/3 80/61/3 13/64/3
f 78/58/3 79/60/3 80/61/3
f 79/60/3 20/46/3 80/61/3
f 80/61/3 31/65/3 13/64/3
f 80/61/3 56/48/3 31/65/3
f 56/48/3 7/16/3 31/65/3
f 29/38/4 61/69/4 4/19/4
f 29/38/4 81/62/4 61/69/4
f 81/62/4 25/67/4 61/69/4
f 81/62/4 83/66/4 25/67/4
f 81/62/4 82/63/4 83/66/4
f 82/63/4 13/64/4 83/66/4
f 83/66/4 43/18/4 25/67/4
f 83/66/4 31/65/4 43/18/4
f 31/65/4 7/16/4 43/18/4
f 61/69/4 55/20/4 4/19/4
f 61/69/4 84/68/4 55/20/4
f 84/68/4 19/78/4 55/20/4
f 84/68/4 86/73/4 19/78/4
f 84/68/4 85/70/4 86/73/4
f 85/70/4 9/71/4 86/73/4
f 86/73/4 37/79/4 19/78/4
f 86/73/4 45/72/4 37/79/4
f 45/72/4 6/22/4 37/79/4
f 60/76/5 52/83/5 3/86/5
f 60/76/5 87/75/5 52/83/5
f 87/75/5 16/81/5 52/83/5
f 87/75/5 89/80/5 16/81/5
f 87/75/5 88/77/5 89/80/5
f 88/77/5 19/78/5 89/80/5
f 89/80/5 34/24/5 16/81/5
f 89/80/5 37/79/5 34/24/5
f 37/79/5 6/22/5 34/24/5
f 52/83/5 54/87/5 3/86/5
f 52/83/5 90/82/5 54/87/5
f 90/82/5 18/88/5 54/87/5
f 90/82/5 92/85/5 18/88/5
f 90/82/5 91/84/5 92/85/5
f 91/84/5 21/44/5 92/85/5
f 92/85/5 36/89/5 18/88/5
f 92/85/5 57/8/5 36/89/5
f 57/8/5 5/7/5 36/89/5
f 50/51/6 30/22/6 5/7/6
f 50/51/6 93/71/6 30/22/6
f 93/71/6 12/67/6 30/22/6
f 93/71/6 95/64/6 12/67/6
f 93/71/6 94/16/6 95/64/6
f 94/16/6 23/55/6 95/64/6
f 95/64/6 48/4/6 12/67/6
f 95/64/6 59/13/6 48/4/6
f 59/13/6 1/1/6 48/4/6
f 30/22/6 36/89/6 5/7/6
f 30/22/6 96/78/6 36/89/6
f 96/78/6 18/88/6 36/89/6
f 96/78/6 98/19/6 18/88/6
f 96/78/6 97/37/6 98/19/6
f 97/37/6 22/26/6 98/19/6
f 98/19/6 54/87/6 18/88/6
f 98/19/6 40/28/6 54/87/6
f 40/28/6 3/86/6 54/87/6
