# Blender v2.69 (sub 0) OBJ File: ''
# www.blender.org
v 0.125000 -0.125000 -0.500000
v 0.125000 -0.125000 0.500000
v -0.125000 -0.3750000 0.500000
v -0.125000 -0.3750000 -0.500000
v 0.125000 0.375000 -0.500000
v 0.125000 0.375000 0.500000
v -0.125000 0.125000 0.500000
v -0.125000 0.125000 -0.500000

vt 0.000000 0.330000
vt 0.500000 0.330000
vt 0.330000 0.000000
vt 0.750000 0.000000

vt 0.000000 0.500000
vt 0.330000 0.750000
vt 0.500000 0.500000
vt 0.750000 0.750000

vn 0.000000 -1.000000 0.000000
vn 0.000000 1.000000 0.000000
vn 1.000000 0.000000 0.000000
vn 0.000000 0.000000 1.000000
vn -1.000000 0.000000 0.000000
vn 0.000000 0.000000 -1.000000
s off

f 1/6/1 2/3/1 4/5/1
f 2/3/1 3/1/1 4/5/1

f 8/7/2 7/2/2 6/4/2
f 5/8/2 8/7/2 6/4/2

f 1/6/3 5/8/3 2/3/3
f 5/8/3 6/4/3 2/3/3

f 2/3/4 6/4/4 3/1/4
f 6/4/4 7/2/4 3/1/4

f 3/1/5 7/2/5 4/5/5
f 7/2/5 8/7/5 4/5/5

f 5/8/6 1/6/6 8/7/6
f 1/6/6 4/5/6 8/7/6
