# Blender v2.69 (sub 0) OBJ File: ''
# www.blender.org
o parallellogram-1
v 0.125000 -0.125000 -0.500000
v 0.125000 -0.125000 0.500000
v -0.125000 -0.375000 -0.500000
v -0.125000 -0.375000 0.500000
v -0.125000 0.125000 -0.500000
v -0.125000 0.125000 0.500000
v 0.125000 0.375000 0.500000
v 0.125000 0.375000 -0.500000
v 0.000000 0.250000 0.500000
v 0.125000 0.125000 0.000000
v 0.000000 -0.250000 0.500000
v 0.000000 0.000000 -0.500000
v 0.125000 0.125000 0.500000
v 0.000000 0.250000 -0.500000
v 0.000000 -0.250000 -0.000000
v -0.125000 -0.125000 -0.000000
v 0.000000 0.250000 0.000000
v -0.125000 -0.125000 -0.500000
v -0.125000 -0.125000 0.500000
v 0.125000 0.375000 0.000000
v -0.125000 0.125000 0.000000
v 0.000000 -0.250000 -0.500000
v 0.125000 0.125000 -0.500000
v -0.125000 -0.375000 -0.000000
v 0.000000 -0.000000 0.500000
v 0.125000 -0.125000 -0.000000
v 0.062500 0.312500 0.500000
v 0.125000 0.250000 -0.250000
v -0.062500 -0.312500 0.500000
v -0.062500 0.062500 -0.500000
v 0.125000 0.250000 0.500000
v 0.062500 0.312500 -0.500000
v -0.062500 -0.312500 -0.250000
v -0.125000 -0.000000 0.250000
v 0.062500 0.312500 0.250000
v -0.125000 0.000000 -0.500000
v -0.125000 -0.000000 0.500000
v 0.125000 0.375000 -0.250000
v -0.125000 0.125000 0.250000
v -0.062500 -0.312500 -0.500000
v 0.125000 0.250000 -0.500000
v -0.125000 -0.375000 0.250000
v 0.062500 0.187500 0.500000
v 0.125000 -0.125000 0.250000
v -0.062500 0.187500 0.500000
v 0.125000 -0.000000 0.250000
v 0.062500 -0.187500 0.500000
v 0.062500 -0.062500 -0.500000
v 0.125000 -0.000000 0.500000
v -0.062500 0.187500 -0.500000
v 0.062500 -0.187500 0.250000
v -0.125000 -0.250000 -0.250000
v -0.062500 0.187500 -0.250000
v -0.125000 -0.250000 -0.500000
v -0.125000 -0.250000 0.500000
v 0.125000 0.375000 0.250000
v -0.125000 0.125000 -0.250000
v 0.062500 -0.187500 -0.500000
v 0.125000 0.000000 -0.500000
v -0.125000 -0.375000 -0.250000
v -0.062500 -0.187500 0.500000
v 0.125000 -0.125000 -0.250000
v 0.000000 -0.250000 -0.250000
v 0.062500 -0.187500 -0.250000
v 0.062500 -0.187500 -0.000000
v -0.062500 -0.312500 -0.000000
v 0.000000 -0.250000 0.250000
v -0.062500 -0.312500 0.250000
v 0.000000 0.250000 0.250000
v -0.062500 0.187500 0.000000
v -0.062500 0.187500 0.250000
v 0.062500 0.312500 0.000000
v 0.062500 0.312500 -0.250000
v 0.000000 0.250000 -0.250000
v 0.125000 0.000000 0.000000
v 0.125000 0.000000 -0.250000
v 0.125000 0.125000 -0.250000
v 0.125000 0.125000 0.250000
v 0.125000 0.250000 0.000000
v 0.125000 0.250000 0.250000
v 0.000000 -0.125000 0.500000
v 0.062500 -0.062500 0.500000
v 0.062500 0.062500 0.500000
v -0.062500 -0.062500 0.500000
v 0.000000 0.125000 0.500000
v -0.062500 0.062500 0.500000
v -0.125000 -0.250000 -0.000000
v -0.125000 -0.250000 0.250000
v -0.125000 -0.125000 0.250000
v -0.125000 -0.125000 -0.250000
v -0.125000 0.000000 0.000000
v -0.125000 0.000000 -0.250000
v 0.000000 0.125000 -0.500000
v 0.062500 0.187500 -0.500000
v 0.062500 0.062500 -0.500000
v -0.062500 -0.062500 -0.500000
v 0.000000 -0.125000 -0.500000
v -0.062500 -0.187500 -0.500000
vt 0.330000 0.750000
vt 0.330000 0.562500
vt 0.247500 0.687500
vt 0.330000 0.000000
vt 0.247500 0.082500
vt 0.247500 0.125000
vt 0.500000 0.500000
vt 0.500000 0.457500
vt 0.562500 0.375000
vt 0.750000 0.750000
vt 0.687500 0.687500
vt 0.750000 0.562500
vt 0.435000 0.750000
vt 0.645000 0.562500
vt 0.435000 0.000000
vt 0.750000 0.000000
vt 0.687500 0.082500
vt 0.562500 0.082500
vt 0.000000 0.330000
vt 0.125000 0.330000
vt 0.000000 0.372500
vt 0.500000 0.330000
vt 0.500000 0.372500
vt 0.375000 0.372500
vt 0.645000 0.750000
vt 0.372500 0.687500
vt 0.165000 0.625000
vt 0.165000 0.437500
vt 0.082500 0.562500
vt 0.247500 0.500000
vt 0.330000 0.375000
vt 0.330000 0.187500
vt 0.247500 0.312500
vt 0.165000 0.250000
vt 0.082500 0.332500
vt 0.082500 0.375000
vt 0.165000 0.207500
vt 0.165000 0.165000
vt 0.082500 0.247500
vt 0.082500 0.290000
vt 0.625000 0.250000
vt 0.625000 0.207500
vt 0.687500 0.125000
vt 0.562500 0.332500
vt 0.500000 0.415000
vt 0.562500 0.290000
vt 0.750000 0.375000
vt 0.687500 0.312500
vt 0.750000 0.187500
vt 0.687500 0.500000
vt 0.625000 0.625000
vt 0.562500 0.562500
vt 0.625000 0.437500
vt 0.435000 0.375000
vt 0.435000 0.562500
vt 0.540000 0.750000
vt 0.540000 0.562500
vt 0.540000 0.375000
vt 0.540000 0.187500
vt 0.435000 0.187500
vt 0.645000 0.375000
vt 0.645000 0.187500
vt 0.270000 0.165000
vt 0.352500 0.082500
vt 0.540000 0.000000
vt 0.645000 0.000000
vt 0.457500 0.082500
vt 0.375000 0.165000
vt 0.312500 0.247500
vt 0.187500 0.247500
vt 0.500000 0.165000
vt 0.625000 0.165000
vt 0.562500 0.247500
vt 0.437500 0.247500
vt 0.000000 0.415000
vt 0.125000 0.415000
vt 0.000000 0.457500
vt 0.125000 0.372500
vt 0.250000 0.330000
vt 0.375000 0.330000
vt 0.250000 0.372500
vt 0.250000 0.415000
vt 0.250000 0.457500
vt 0.125000 0.457500
vt 0.375000 0.415000
vt 0.375000 0.457500
vt 0.520000 0.625000
vt 0.582500 0.687500
vt 0.477500 0.687500
vt 0.415000 0.625000
vt 0.332500 0.562500
vt 0.457500 0.562500
vt 0.290000 0.625000
vt 0.207500 0.562500
vt 0.000000 0.500000
vt 0.125000 0.500000
vt 0.250000 0.500000
vt 0.375000 0.500000
vn 0.707107 -0.707107 -0.000000
vn -0.707107 0.707107 0.000000
vn 1.000000 0.000000 0.000000
vn 0.000002 -0.000000 1.000000
vn 0.000001 0.000000 1.000000
vn -1.000000 0.000000 0.000000
vn 0.000000 0.000000 -1.000000
vn -0.000002 0.000000 1.000000
vn -0.000001 0.000000 1.000000
vn 0.000000 -0.000000 1.000000
vn 0.000001 0.000000 -1.000000
vn -0.000002 0.000000 -1.000000
vn -0.000001 0.000000 -1.000000
vn 0.000002 0.000000 -1.000000
s off
f 1/1/1 62/2/1 58/3/1
f 2/4/1 47/5/1 51/6/1
f 5/7/2 57/8/2 53/9/2
f 8/10/2 32/11/2 38/12/2
f 1/1/3 59/13/3 62/2/3
f 8/10/3 38/12/3 28/14/3
f 2/4/4 49/15/4 47/5/4
f 7/16/5 27/17/5 43/18/5
f 4/19/6 55/20/6 42/21/6
f 6/22/6 39/23/6 34/24/6
f 8/10/7 41/25/7 32/11/7
f 1/1/7 58/3/7 48/26/7
f 22/27/1 63/28/1 40/29/1
f 22/27/1 64/30/1 63/28/1
f 26/31/1 44/32/1 65/33/1
f 15/34/1 66/35/1 33/36/1
f 15/34/1 67/37/1 66/35/1
f 11/38/1 29/39/1 68/40/1
f 17/41/2 69/42/2 35/43/2
f 17/41/2 70/44/2 69/42/2
f 21/45/2 39/23/2 71/46/2
f 20/47/2 72/48/2 56/49/2
f 20/47/2 73/50/2 72/48/2
f 14/51/2 50/52/2 74/53/2
f 26/31/3 75/54/3 44/32/3
f 26/31/3 76/55/3 75/54/3
f 23/56/3 41/25/3 77/57/3
f 10/58/3 78/59/3 46/60/3
f 10/58/3 79/61/3 78/59/3
f 20/47/3 56/49/3 80/62/3
f 11/38/8 81/63/8 29/39/8
f 11/38/9 82/64/9 81/63/9
f 13/65/10 31/66/10 83/67/10
f 25/68/9 84/69/9 61/70/9
f 25/68/10 85/71/10 84/69/10
f 9/72/5 45/73/5 86/74/5
f 24/75/6 87/76/6 60/77/6
f 24/75/6 88/78/6 87/76/6
f 19/79/6 37/80/6 89/81/6
f 16/82/6 90/83/6 52/84/6
f 16/82/6 91/85/6 90/83/6
f 21/45/6 57/8/6 92/86/6
f 14/51/7 93/87/7 50/52/7
f 14/51/7 94/88/7 93/87/7
f 23/56/7 59/13/7 95/89/7
f 12/90/7 96/91/7 30/92/7
f 12/90/7 97/93/7 96/91/7
f 22/27/7 40/29/7 98/94/7
f 58/3/1 64/30/1 22/27/1
f 58/3/1 62/2/1 64/30/1
f 62/2/1 26/31/1 64/30/1
f 51/6/1 67/37/1 15/34/1
f 51/6/1 47/5/1 67/37/1
f 47/5/1 11/38/1 67/37/1
f 53/9/2 70/44/2 17/41/2
f 53/9/2 57/8/2 70/44/2
f 57/8/2 21/45/2 70/44/2
f 38/12/2 73/50/2 20/47/2
f 38/12/2 32/11/2 73/50/2
f 32/11/2 14/51/2 73/50/2
f 62/2/3 76/55/3 26/31/3
f 62/2/3 59/13/3 76/55/3
f 59/13/3 23/56/3 76/55/3
f 28/14/3 79/61/3 10/58/3
f 28/14/3 38/12/3 79/61/3
f 38/12/3 20/47/3 79/61/3
f 47/5/10 82/64/10 11/38/10
f 47/5/9 49/15/9 82/64/9
f 49/15/10 13/65/10 82/64/10
f 43/18/5 85/71/5 25/68/5
f 43/18/10 27/17/10 85/71/10
f 27/17/10 9/72/10 85/71/10
f 42/21/6 88/78/6 24/75/6
f 42/21/6 55/20/6 88/78/6
f 55/20/6 19/79/6 88/78/6
f 34/24/6 91/85/6 16/82/6
f 34/24/6 39/23/6 91/85/6
f 39/23/6 21/45/6 91/85/6
f 32/11/7 94/88/7 14/51/7
f 32/11/7 41/25/7 94/88/7
f 41/25/7 23/56/7 94/88/7
f 48/26/7 97/93/7 12/90/7
f 48/26/11 58/3/11 97/93/11
f 58/3/12 22/27/12 97/93/12
f 40/29/1 33/36/1 3/95/1
f 40/29/1 63/28/1 33/36/1
f 63/28/1 15/34/1 33/36/1
f 63/28/1 65/33/1 15/34/1
f 63/28/1 64/30/1 65/33/1
f 64/30/1 26/31/1 65/33/1
f 65/33/1 51/6/1 15/34/1
f 65/33/1 44/32/1 51/6/1
f 44/32/1 2/4/1 51/6/1
f 33/36/1 60/77/1 3/95/1
f 33/36/1 66/35/1 60/77/1
f 66/35/1 24/75/1 60/77/1
f 66/35/1 68/40/1 24/75/1
f 66/35/1 67/37/1 68/40/1
f 67/37/1 11/38/1 68/40/1
f 68/40/1 42/21/1 24/75/1
f 68/40/1 29/39/1 42/21/1
f 29/39/1 4/19/1 42/21/1
f 35/43/2 27/17/2 7/16/2
f 35/43/2 69/42/2 27/17/2
f 69/42/2 9/72/2 27/17/2
f 69/42/2 71/46/2 9/72/2
f 69/42/2 70/44/2 71/46/2
f 70/44/2 21/45/2 71/46/2
f 71/46/2 45/73/2 9/72/2
f 71/46/2 39/23/2 45/73/2
f 39/23/2 6/22/2 45/73/2
f 56/49/2 35/43/2 7/16/2
f 56/49/2 72/48/2 35/43/2
f 72/48/2 17/41/2 35/43/2
f 72/48/2 74/53/2 17/41/2
f 72/48/2 73/50/2 74/53/2
f 73/50/2 14/51/2 74/53/2
f 74/53/2 53/9/2 17/41/2
f 74/53/2 50/52/2 53/9/2
f 50/52/2 5/7/2 53/9/2
f 44/32/3 46/60/3 2/4/3
f 44/32/3 75/54/3 46/60/3
f 75/54/3 10/58/3 46/60/3
f 75/54/3 77/57/3 10/58/3
f 75/54/3 76/55/3 77/57/3
f 76/55/3 23/56/3 77/57/3
f 77/57/3 28/14/3 10/58/3
f 77/57/3 41/25/3 28/14/3
f 41/25/3 8/10/3 28/14/3
f 46/60/3 49/15/3 2/4/3
f 46/60/3 78/59/3 49/15/3
f 78/59/3 13/65/3 49/15/3
f 78/59/3 80/62/3 13/65/3
f 78/59/3 79/61/3 80/62/3
f 79/61/3 20/47/3 80/62/3
f 80/62/3 31/66/3 13/65/3
f 80/62/3 56/49/3 31/66/3
f 56/49/3 7/16/3 31/66/3
f 29/39/8 61/70/8 4/19/8
f 29/39/5 81/63/5 61/70/5
f 81/63/4 25/68/4 61/70/4
f 81/63/9 83/67/9 25/68/9
f 81/63/10 82/64/10 83/67/10
f 82/64/10 13/65/10 83/67/10
f 83/67/10 43/18/10 25/68/10
f 83/67/5 31/66/5 43/18/5
f 31/66/10 7/16/10 43/18/10
f 61/70/5 55/20/5 4/19/5
f 61/70/10 84/69/10 55/20/10
f 84/69/10 19/79/10 55/20/10
f 84/69/10 86/74/10 19/79/10
f 84/69/10 85/71/10 86/74/10
f 85/71/10 9/72/10 86/74/10
f 86/74/9 37/80/9 19/79/9
f 86/74/10 45/73/10 37/80/10
f 45/73/5 6/22/5 37/80/5
f 60/77/6 52/84/6 3/95/6
f 60/77/6 87/76/6 52/84/6
f 87/76/6 16/82/6 52/84/6
f 87/76/6 89/81/6 16/82/6
f 87/76/6 88/78/6 89/81/6
f 88/78/6 19/79/6 89/81/6
f 89/81/6 34/24/6 16/82/6
f 89/81/6 37/80/6 34/24/6
f 37/80/6 6/22/6 34/24/6
f 52/84/6 54/96/6 3/95/6
f 52/84/6 90/83/6 54/96/6
f 90/83/6 18/97/6 54/96/6
f 90/83/6 92/86/6 18/97/6
f 90/83/6 91/85/6 92/86/6
f 91/85/6 21/45/6 92/86/6
f 92/86/6 36/98/6 18/97/6
f 92/86/6 57/8/6 36/98/6
f 57/8/6 5/7/6 36/98/6
f 50/52/7 30/92/7 5/7/7
f 50/52/7 93/87/7 30/92/7
f 93/87/7 12/90/7 30/92/7
f 93/87/7 95/89/7 12/90/7
f 93/87/13 94/88/13 95/89/13
f 94/88/7 23/56/7 95/89/7
f 95/89/7 48/26/7 12/90/7
f 95/89/7 59/13/7 48/26/7
f 59/13/7 1/1/7 48/26/7
f 30/92/7 36/98/7 5/7/7
f 30/92/7 96/91/7 36/98/7
f 96/91/7 18/97/7 36/98/7
f 96/91/11 98/94/11 18/97/11
f 96/91/13 97/93/13 98/94/13
f 97/93/14 22/27/14 98/94/14
f 98/94/12 54/96/12 18/97/12
f 98/94/7 40/29/7 54/96/7
f 40/29/7 3/95/7 54/96/7
